# xmcd CD database file
#
# Track frame offsets:
#	183
#	22365
#	41028
#	60263
#	88828
#	108535
#	129105
#	161538
#	181373
#	203263
#	223245
#
# Disc length: 3220 seconds
#
# Revision: 2
# Processed by: cddbd v1.5.2PL0 Copyright (c) Steve Scherf et al.
# Submitted via: CDex 1.51
#
DISCID=950c920b
DTITLE=Clive Griffin - Inside Out
DYEAR=1991
DGENRE=Pop
TTITLE0=I'll Be Waiting(Inside Out UK CD Version)
TTITLE1=Take A Little Time(Inside Out UK CD Version)
TTITLE2=Reach For The Top(Inside Out UK CD Version)
TTITLE3=Heaven Can Wait(Inside Out UK CD Version)
TTITLE4=I Wanna Feel Love(Inside Out UK CD Version)
TTITLE5=Make Me Believe(Inside Out UK CD Version)
TTITLE6=Love Is A River(Inside Out UK CD Version)
TTITLE7=It's Your Life(Inside Out UK CD Version)
TTITLE8=Don't Make Me Cry(Inside Out UK CD Version)
TTITLE9=I Am(Inside Out UK CD Version)
TTITLE10=I'll Be Waiting(Orchestral Mix)(Inside Out UK CD Version)
EXTD=YEAR: 1991
EXTT0=
EXTT1=
EXTT2=
EXTT3=
EXTT4=
EXTT5=
EXTT6=
EXTT7=
EXTT8=
EXTT9=
EXTT10=
PLAYORDER=
